<svg width="28" height="24" viewBox="0 0 28 24" fill="none" xmlns="http://www.w3.org/2000/svg">
<path d="M24.6122 8.66177C24.7937 8.66177 24.9147 8.81303 24.8743 8.99454L23.6643 16.1138C22.7668 20.4298 18.572 23.929 14.2561 23.9995H14.125H0.26995C0.0884424 23.9995 -0.0325628 23.8483 0.0077723 23.6668L0.622882 20.6718C0.814473 19.7542 1.71193 19.008 2.62955 19.008H15.1637C16.7569 19.008 18.3098 17.7273 18.6627 16.1441L18.6728 16.0937L19.6106 10.3055C19.8022 9.38782 20.6997 8.6416 21.6173 8.6416H24.6122V8.66177Z" fill="white"/>
<path d="M18.3297 1.43164C18.5112 1.43164 18.6322 1.5829 18.5919 1.76441L17.9768 4.75936C17.7852 5.67701 16.8877 6.42322 15.9701 6.42322H11.1299C9.53665 6.42322 7.98375 7.70389 7.63082 9.28708L7.62074 9.3375L6.68295 15.1257C6.49136 16.0434 5.5939 16.7896 4.67628 16.7896H1.67132C1.48981 16.7896 1.3688 16.6383 1.40914 16.4568L2.61919 9.3375C3.51665 5.02155 7.71149 1.5224 12.0273 1.45181H12.1584H18.3297V1.43164Z" fill="white"/>
<path d="M25.2676 0C25.7315 0 26.0239 0.373108 25.9231 0.826888L25.7113 1.86554H26.7499C27.2138 1.86554 27.5062 2.23865 27.4054 2.69243L26.9718 4.76973C26.881 5.22351 26.4272 5.59662 25.9634 5.59662H24.9248L24.713 6.63527C24.6222 7.08905 24.1685 7.46216 23.7046 7.46216H21.6274C21.1635 7.46216 20.8711 7.08905 20.9719 6.63527L21.1837 5.59662H20.1451C19.6812 5.59662 19.3888 5.22351 19.4896 4.76973L19.9232 2.69243C20.014 2.23865 20.4677 1.86554 20.9316 1.86554H21.9702L22.182 0.826888C22.2727 0.373108 22.7265 0 23.1904 0H25.2676Z" fill="white"/>
</svg>
